<?xml version="1.0" encoding="UTF-8"?>
<svg width="710px" height="991px" viewBox="0 0 710 991" version="1.1" xmlns="http://www.w3.org/2000/svg" xmlns:xlink="http://www.w3.org/1999/xlink">
    <!-- Generator: Sketch 47.1 (45422) - http://www.bohemiancoding.com/sketch -->
    <title>Group</title>
    <desc>Created with Sketch.</desc>
    <defs>
        <polygon id="path-1" points="7.50015721 639.20147 34.5167276 667.149125 56.6921867 631.600118 56.6921867 599.263388 25.4183054 587.753673 32.2654646 569.270829 78.7851214 569.270829 70.3775454 551.146161 91.9885383 509.971429 109.956201 525.024734 131.794961 516.462904 136.794519 557.664029 163.042434 557.664029 169.708512 537.472306 209.406474 537.472306 196.464305 566.695258 216.5776 574.672223 165.28238 608.403013 165.28238 625.453152 154.977688 639.20147 154.977688 662.886355 164.51844 667.149125 146.681874 690.004078 119.795927 685.709731 105.918169 724.231131 99.3728129 724.231131 91.9885383 744.971429 62.5999836 739.713776 61.7247544 724.231131 47.4914343 729.681538 35.117033 718.637923 -6.4224 718.637923 -6.4224 671.616904"></polygon>
        <polygon id="path-2" points="201.0188 651.342857 190.56328 664.699104 190.56328 685.624077 201.95095 689.988882 180.720882 717.747764 154.605141 713.327121 141.8016 749.12584 190.56328 754.385003 195.645171 789.342857 222.701532 743.778462 278.782547 764.016012 297.991622 764.016012 297.991622 734.525188 322.8016 671.813613 293.152533 651.342857 249.608731 651.342857 249.608731 664.699104"></polygon>
        <polygon id="path-3" points="543.205619 651.274796 557.9776 687.473553 539.047053 703.759511 557.235891 739.587866 526.976608 771.550758 526.976608 810.705207 518.906398 874.577338 476.059735 869.338986 470.582209 890.29569 454.820653 900.085714 434.761521 890.29569 444.068227 874.577338 416.408224 869.338986 428.312798 831.485888 410.673408 809.216536 434.020754 771.550758 358.9776 770.617456 358.9776 742.16986 384.309835 679.346514 395.043325 656.209579 421.264676 660.957983 427.146514 645.001952 453.92344 638.469778 446.851757 605.179177 449.782309 600.623269 472.902995 601.724594 462.563833 591.159407 502.888967 582.085714 546.540483 645.732874"></polygon>
        <polygon id="path-4" points="384.121239 542.285714 344.2976 622.914368 363.818918 636.285714 374.378929 613.522314 400.766489 617.77449 406.550147 603.291742 431.2976 596.889121 425.335628 566.951267"></polygon>
        <polygon id="path-5" points="294.884451 515.019014 294.884451 503.017923 307.668787 502.942857 313.556708 513.886933 342.530234 513.886933 342.530234 537.642808 354.6336 536.332915 315.056257 614.336257 307.668787 608.451963 260.453265 608.451963 260.554585 620.942857 213.6336 608.451963 213.6336 594.999393 268.668266 559.02849 246.022346 550.258498 260.047039 518.800437 264.809119 504.150473"></polygon>
        <polygon id="path-6" points="371.88868 519.428571 381.57989 518.41979 395.6224 476.661728 384.26601 467.15919 378.695111 468.206172 358.631906 456.428571 336.6224 485.153598 341.641832 495.805458 371.88868 495.805458"></polygon>
        <polygon id="path-7" points="260.9344 455.370411 272.905469 468.4687 299.370184 478.542857 299.370184 466.956634 314.116323 466.956634 338.664068 434.760796 360.042254 447.197998 362.9344 447.197998 338.664068 414.241651 331.167808 394.542857 294.694132 402.782651 288.382755 415.405504"></polygon>
        <polygon id="path-8" points="247.549159 266.331021 229.9296 273.888221 229.9296 282.323859 276.230994 282.323859 282.143768 286.942857 290.596086 263.114024 295.9296 223.451596 291.633498 209.942857 252.688334 216.161375 238.924564 237.099732"></polygon>
        <polygon id="path-9" points="352.096 381.894027 361.164622 406.545847 385.496688 438.805714 416.642774 464.971429 430.096 448.615446 414.958101 429.413267 428.825389 411.636069 424.090206 411.636069 409.260721 397.485065 411.526218 360.971429 391.778207 373.35638 361.164622 363.626624"></polygon>
        <polygon id="path-10" points="460.646059 536.16806 474.893099 537.314286 465.303003 527.964561 513.143374 517.502434 518.313207 525.210801 534.0768 512.117053 519.022783 483.841922 458.725782 475.314286 445.0768 491.766381 446.392433 492.788119 462.068505 533.498858"></polygon>
        <polygon id="path-11" points="455.455457 456.438769 515.7104 464.914286 515.7104 437.790947 506.231659 432.987514 493.760055 428.914286 480.461008 434.344009 455.455457 434.344009 442.7104 440.04475"></polygon>
        <polygon id="path-12" points="447.499223 292.083655 466.628372 312.732096 483.629973 273.002217 550.117911 267.342857 559.005837 294.419039 563.458481 329.532494 591.4352 349.237709 586.340632 380.73751 559.005837 381.342857 548.687659 374.114603 537.217959 381.342857 471.49348 351.685562 451.782002 325.401861 441.4352 295.223333"></polygon>
        <polygon id="path-13" points="382.612173 206.940888 411.88283 238 421.729552 232.172185 411.88283 218.346404 411.88283 193.05869 422.70129 193.05869 422.70129 163.564663 429.768259 169.636479 433.233778 145.05538 422.70129 145.05538 422.70129 125.958897 433.233778 125.958897 433.233778 99.7483041 421.729552 93.5829312 429.768259 77.8178364 441.1168 73.2899496 437.697845 56.4016982 421.729552 7.71433917 398.101182 14.4960614 398.101182 -7 373.1168 -0.582163588 389.355072 72.3407436 389.355072 123.842811 383.382131 149.175188"></polygon>
        <polygon id="path-14" points="392.5696 518.283283 433.220508 542.057143 439.5696 532.783421 424.359233 494.404414 405.972183 479.057143"></polygon>
        <polygon id="path-15" points="271.628195 391.742857 278.783321 377.613495 316.304 369.363279 300.443431 332.194172 274.358223 311.205259 229.166118 311.205259 229.166118 317.060493 197.304 309.742857 197.304 366.138868 252.096469 342.746534 238.329866 377.613495"></polygon>
        <polygon id="path-16" points="325.471614 232.604716 320.399084 269.423228 311.8528 294.102951 329.928107 309.538492 343.660984 341.6 353.348376 322.960004 384.652701 333.385198 412.8528 315.501463 410.228395 312.269225 399.193451 280.785978 368.146004 248.148562 369.054271 199.6 361.803692 214.776076 347.055554 226.123286"></polygon>
        <polygon id="path-17" points="428.552185 337.43215 435.276766 333.171429 452.1584 354.952247 447.116749 387.171429 438.890045 387.171429 426.1584 374.640929"></polygon>
        <polygon id="path-18" points="539.01434 525.048317 575.21563 578.685714 577.676701 572.394621 590.6992 525.809321 584.850019 510.40498 566.123943 446.918243 570.922228 428.367885 561.251437 421.685714 551.306932 428.367885 531.6992 444.410079 540.614083 449.633228 540.614083 479.711929 556.39926 510.40498"></polygon>
        <polygon id="path-19" points="449.9904 419.114286 462.789518 402.941159 465.613307 402.941159 471.084722 369.114286 531.9904 396.644904 513.448593 412.258998 500.551085 408.091279 487.141482 413.565124 462.215108 413.565124"></polygon>
        <polygon id="path-20" points="444.716446 284.139224 460.328427 301 475.78022 264.019998 545 258.101694 502.047796 182.638152 502.047796 166.697354 485.920282 172.579479 485.920282 155.999207 491.822205 149.488415 463.087541 125 454.391536 128.71468 448.486305 141.337356 458.85082 147.206325 458.85082 177.468329 447.759079 177.468329 447.759079 190.700878 458.85082 190.700878 454.391536 223.383579 447.759079 218.48956 447.759079 244.553872 437 244.553872 437 266.088773 447.759079 281.693155"></polygon>
        <circle id="path-21" cx="429.91" cy="207.91" r="49.9099998"></circle>
        <circle id="path-22" cx="483.84" cy="385.84" r="37.8400002"></circle>
        <circle id="path-23" cx="394.450001" cy="116.450001" r="22.4500008"></circle>
        <circle id="path-24" cx="314.940001" cy="18.9400005" r="18.9400005"></circle>
        <circle id="path-25" cx="395.211874" cy="343.211874" r="27.211874"></circle>
        <circle id="path-26" cx="207.205002" cy="460.205002" r="38.2050018"></circle>
        <circle id="path-27" cx="385.720001" cy="619.720001" r="43.7200012"></circle>
        <circle id="path-28" cx="165.280001" cy="602.280001" r="18.2800007"></circle>
        <circle id="path-29" cx="13.4799995" cy="524.48" r="13.4799995"></circle>
        <circle id="path-30" cx="301.775" cy="480.775" r="27.7749996"></circle>
        <circle id="path-31" cx="333.014999" cy="404.014999" r="26.0149994"></circle>
        <circle id="path-32" cx="272.790001" cy="171.790001" r="43.7900009"></circle>
        <circle id="path-33" cx="180.089998" cy="141.030001" r="23.0300007"></circle>
        <circle id="path-34" cx="175.186259" cy="233.186259" r="36.1862585"></circle>
        <circle id="path-35" cx="221.299999" cy="324.299999" r="43.2999992"></circle>
        <circle id="path-36" cx="311" cy="306" r="43"></circle>
        <circle id="path-37" cx="282.045" cy="379.045" r="21.0450001"></circle>
        <circle id="path-38" cx="357.33" cy="250.33" r="27.3299999"></circle>
        <circle id="path-39" cx="405.620001" cy="287.620001" r="25.6200008"></circle>
        <circle id="path-40" cx="399.66" cy="394.66" r="13.6599998"></circle>
    </defs>
    <g id="Layouts" stroke="none" stroke-width="1" fill="none" fill-rule="evenodd">
        <g id="light-copy" transform="translate(-760.000000, 0.000000)">
            <g id="Group" transform="translate(760.000000, 0.000000)">
                <rect id="Rectangle" fill="#F5A623" x="0" y="0" width="710" height="991"></rect>
                <g id="map-cracked" transform="translate(50.000000, 50.000000)">
                    <g id="map_cracked">
                        <g id="districts">
                            <g id="bergheim">
                                <use fill="#5F5F5F" fill-rule="evenodd" xlink:href="#path-1"></use>
                                <path stroke="#4D4D4D" stroke-width="1.5" d="M7.74441094,640.533233 L-5.6724,671.771155 L-5.6724,717.887923 L35.4030367,717.887923 L47.6499247,728.817738 L62.4155976,723.163475 L63.3153452,739.079848 L91.4951153,744.121247 L98.8437217,723.481131 L105.391179,723.481131 L119.30085,684.871148 L146.362994,689.193638 L163.337702,667.443032 L154.227688,663.372714 L154.227688,638.951597 L164.53238,625.203279 L164.53238,607.998573 L214.960748,574.837809 L195.462653,567.104832 L208.254055,538.222306 L170.250723,538.222306 L163.584645,558.414029 L136.130026,558.414029 L131.167082,517.514641 L109.815655,525.885413 L92.2201718,511.14392 L71.2138165,551.166656 L79.9597914,570.020829 L32.7874306,570.020829 L26.3826956,587.309417 L57.4421867,598.740231 L57.4421867,631.814865 L34.6448635,668.360769 L7.74441094,640.533233 Z"></path>
                            </g>
                            <g id="inningen">
                                <use fill="#5F5F5F" fill-rule="evenodd" xlink:href="#path-2"></use>
                                <path stroke="#4D4D4D" stroke-width="1.5" d="M201.301541,652.198394 L191.31328,664.957748 L191.31328,685.108341 L203.156151,689.647621 L181.04178,718.562752 L155.099671,714.1715 L142.828316,748.482227 L191.221828,753.701681 L196.082458,787.137506 L222.37311,742.862607 L278.91373,763.266012 L297.241622,763.266012 L297.241622,734.382221 L321.884876,672.092072 L292.918772,652.092857 L250.358731,652.092857 L250.358731,665.683079 L201.301541,652.198394 Z"></path>
                            </g>
                            <g id="haunstetten">
                                <use fill="#5F5F5F" fill-rule="evenodd" xlink:href="#path-3"></use>
                                <path stroke="#4D4D4D" stroke-width="1.5" d="M545.649216,645.759374 L502.557861,582.92897 L464.04038,591.595916 L474.774392,602.564586 L450.17894,601.393013 L447.64953,605.325295 L454.80831,639.02591 L427.712135,645.635964 L421.750605,661.808178 L395.479815,657.05082 L385.005415,679.626993 L359.7276,742.315379 L359.7276,769.876726 L435.357771,770.817328 L411.588458,809.163859 L429.147487,831.331757 L417.376814,868.759089 L445.258344,874.039395 L435.821076,889.978256 L454.777069,899.229884 L469.932263,889.816491 L475.499919,868.514959 L518.256018,873.74224 L526.226608,810.705207 L526.226608,771.252057 L556.327874,739.456077 L538.112042,703.57455 L557.079217,687.257081 L542.369196,651.210157 L545.649216,645.759374 Z"></path>
                            </g>
                            <g id="univiertel">
                                <use fill="#5F5F5F" fill-rule="evenodd" xlink:href="#path-4"></use>
                                <path stroke="#4D4D4D" stroke-width="1.5" d="M384.433673,543.346749 L345.258136,622.663228 L363.511537,635.1661 L373.937566,612.691516 L400.292756,616.938476 L405.99452,602.660799 L430.423625,596.340541 L424.665042,567.423995 L384.433673,543.346749 Z"></path>
                            </g>
                            <g id="göggingen">
                                <use fill="#5F5F5F" fill-rule="evenodd" xlink:href="#path-5"></use>
                                <path stroke="#4D4D4D" stroke-width="1.5" d="M265.282678,505.119077 L260.732047,519.105829 L247.028376,549.843822 L270.301771,558.856814 L214.3836,595.40518 L214.3836,607.875501 L259.796628,619.96496 L259.697156,607.701963 L307.930979,607.701963 L314.803776,613.176308 L353.338724,537.227433 L341.780234,538.478356 L341.780234,514.636933 L313.108555,514.636933 L307.222053,503.695493 L295.634451,503.763532 L295.634451,516.087517 L265.282678,505.119077 Z"></path>
                            </g>
                            <g id="antonsviertel">
                                <use fill="#5F5F5F" fill-rule="evenodd" xlink:href="#path-6"></use>
                                <path stroke="#4D4D4D" stroke-width="1.5" d="M372.63868,518.59645 L381.022689,517.723739 L394.748244,476.908199 L384.05639,467.961716 L378.557625,468.995141 L358.823995,457.411009 L337.495576,485.247136 L342.117512,495.055458 L372.63868,495.055458 L372.63868,518.59645 Z"></path>
                            </g>
                            <g id="pfersee">
                                <use fill="#5F5F5F" fill-rule="evenodd" xlink:href="#path-7"></use>
                                <path stroke="#4D4D4D" stroke-width="1.5" d="M261.889817,455.304073 L273.338852,467.831171 L298.620184,477.454858 L298.620184,466.206634 L313.745028,466.206634 L338.469021,433.779636 L360.244546,446.447998 L361.450638,446.447998 L338.06016,414.686393 L337.963107,414.508398 L330.698302,395.417824 L295.206031,403.435908 L289.053576,415.740912 L289.000985,415.830111 L261.889817,455.304073 Z"></path>
                            </g>
                            <g id="bärenkeller">
                                <use fill="#5F5F5F" fill-rule="evenodd" xlink:href="#path-8"></use>
                                <path stroke="#4D4D4D" stroke-width="1.5" d="M230.6796,274.382615 L230.6796,281.573859 L276.489215,281.573859 L281.784985,285.71086 L289.863169,262.936788 L295.163856,223.518476 L291.114384,210.785247 L253.133313,216.849825 L239.74233,237.221074 L248.457015,266.757708 L230.6796,274.382615 Z"></path>
                            </g>
                            <g id="innenstadt">
                                <use fill="#5F5F5F" fill-rule="evenodd" xlink:href="#path-9"></use>
                                <path stroke="#4D4D4D" stroke-width="1.5" d="M352.911395,381.938219 L361.830203,406.182791 L386.044242,438.286177 L416.544952,463.909712 L429.133099,448.605463 L414.004996,429.415712 L427.289145,412.386069 L423.78978,412.386069 L408.490557,397.786817 L410.6872,362.382909 L391.882255,374.176417 L361.550406,364.536204 L352.911395,381.938219 Z"></path>
                            </g>
                            <g id="spickel">
                                <use fill="#5F5F5F" fill-rule="evenodd" xlink:href="#path-10"></use>
                                <path stroke="#4D4D4D" stroke-width="1.5" d="M461.84546,535.512133 L472.8809,536.399974 L463.782276,527.529402 L513.481888,516.66068 L518.473223,524.102901 L533.127741,511.930386 L518.540041,484.531113 L459.035532,476.115556 L446.148577,491.649127 L447.017326,492.32381 L462.891552,533.549154 L461.84546,535.512133 Z"></path>
                            </g>
                            <g id="herrenbach">
                                <use fill="#5F5F5F" fill-rule="evenodd" xlink:href="#path-11"></use>
                                <path stroke="#4D4D4D" stroke-width="1.5" d="M455.860978,455.738427 L514.9604,464.051407 L514.9604,438.251682 L505.944037,433.682564 L493.788786,429.712657 L480.608215,435.094009 L455.615549,435.094009 L443.889207,440.339088 L455.860978,455.738427 Z"></path>
                            </g>
                            <g id="lechhausen">
                                <use fill="#5F5F5F" fill-rule="evenodd" xlink:href="#path-12"></use>
                                <path stroke="#4D4D4D" stroke-width="1.5" d="M447.33705,293.012186 L442.35444,295.591957 L452.453059,325.04661 L471.977769,351.08127 L537.159065,380.493462 L548.70961,373.214259 L559.234898,380.587601 L585.699921,380.001515 L590.619955,349.58086 L562.756066,329.955117 L558.270835,294.584676 L549.59036,268.140474 L484.142313,273.711319 L466.863357,314.08933 L447.33705,293.012186 Z"></path>
                            </g>
                            <g id="firnhaberau">
                                <use fill="#5F5F5F" fill-rule="evenodd" xlink:href="#path-13"></use>
                                <path stroke="#4D4D4D" stroke-width="1.5" d="M383.366151,206.647391 L412.017152,237.048986 L420.645174,231.942463 L411.13283,218.586182 L411.13283,192.30869 L421.95129,192.30869 L421.95129,161.931472 L429.217018,168.174058 L432.370624,145.80538 L421.95129,145.80538 L421.95129,125.208897 L432.483778,125.208897 L432.483778,100.197278 L420.727596,93.8968759 L429.228272,77.2257904 L440.257696,72.8252265 L436.985195,56.6354303 L421.242048,8.63454115 L397.351182,15.491604 L397.351182,-6.03299571 L374.006697,-0.0364061554 L390.087142,72.1777283 L390.105072,72.3407436 L390.105072,123.842811 L390.085056,124.014929 L384.13097,149.267338 L383.366151,206.647391 Z"></path>
                            </g>
                            <g id="hochfeld">
                                <use fill="#5F5F5F" fill-rule="evenodd" xlink:href="#path-14"></use>
                                <path stroke="#4D4D4D" stroke-width="1.5" d="M393.477595,517.945461 L432.996219,541.057128 L438.725384,532.688895 L423.732249,494.858011 L406.329157,480.332028 L393.477595,517.945461 Z"></path>
                            </g>
                            <g id="kriegshaber">
                                <use fill="#5F5F5F" fill-rule="evenodd" xlink:href="#path-15"></use>
                                <path stroke="#4D4D4D" stroke-width="1.5" d="M271.27581,390.778604 L278.274899,376.957372 L315.258946,368.825153 L299.827193,332.660969 L274.093951,311.955259 L229.916118,311.955259 L229.916118,318.002268 L198.054,310.684632 L198.054,365.003183 L253.45355,341.35167 L239.296022,377.208734 L271.27581,390.778604 Z"></path>
                            </g>
                            <g id="oberhausen">
                                <use fill="#5F5F5F" fill-rule="evenodd" xlink:href="#path-16"></use>
                                <path stroke="#4D4D4D" stroke-width="1.5" d="M326.148829,233.18444 L321.142066,269.525589 L321.107795,269.668645 L312.728937,293.86488 L330.548489,309.082017 L343.726375,339.847811 L352.978059,322.046182 L384.551787,332.561094 L411.739086,315.319649 L409.563818,312.640571 L398.538974,281.186143 L367.390376,248.442395 L368.239694,203.044753 L362.403135,215.261167 L347.403481,226.801893 L326.148829,233.18444 Z"></path>
                            </g>
                            <g id="jakoberviertel">
                                <use fill="#5F5F5F" fill-rule="evenodd" xlink:href="#path-17"></use>
                                <path stroke="#4D4D4D" stroke-width="1.5" d="M429.276125,337.861331 L426.928866,374.346908 L439.197213,386.421429 L446.474982,386.421429 L451.367396,355.155965 L435.101902,334.170096 L429.276125,337.861331 Z"></path>
                            </g>
                            <g id="hochzoll">
                                <use fill="#5F5F5F" fill-rule="evenodd" xlink:href="#path-18"></use>
                                <path stroke="#4D4D4D" stroke-width="1.5" d="M540.01318,525.187594 L575.038359,577.082414 L576.954392,572.192706 L589.9105,525.844908 L584.130659,510.617163 L565.345866,446.93136 L570.064958,428.687165 L561.245418,422.593178 L551.781852,428.948361 L533.008472,444.307923 L541.364083,449.2034 L541.364083,479.530372 L557.339603,510.593529 L540.01318,525.187594 Z"></path>
                            </g>
                            <g id="textilviertel">
                                <use fill="#5F5F5F" fill-rule="evenodd" xlink:href="#path-19"></use>
                                <path stroke="#4D4D4D" stroke-width="1.5" d="M452.500307,417.15131 L462.052852,412.815124 L486.9943,412.815124 L500.521148,407.293419 L513.283547,411.417479 L530.59674,396.838003 L471.668648,370.201295 L466.251744,403.691159 L463.152426,403.691159 L452.500307,417.15131 Z"></path>
                            </g>
                            <g id="hammerschmiede">
                                <use fill="#5F5F5F" fill-rule="evenodd" xlink:href="#path-20"></use>
                                <path stroke="#4D4D4D" stroke-width="1.5" d="M445.813206,284.219817 L460.086166,299.634464 L475.263443,263.311446 L543.768512,257.454251 L501.297796,182.836644 L501.297796,167.769226 L485.170282,173.651351 L485.170282,155.709868 L490.747164,149.55765 L462.954783,125.872273 L454.949518,129.291889 L449.459682,141.026642 L459.60082,146.769122 L459.60082,178.218329 L448.509079,178.218329 L448.509079,189.950878 L459.7101,189.950878 L454.963706,224.737854 L448.509079,219.975056 L448.509079,245.303872 L437.75,245.303872 L437.75,265.855276 L448.772073,281.84109 L445.813206,284.219817 Z"></path>
                            </g>
                        </g>
                    </g>
                    <g id="circles" transform="translate(88.000000, 107.000000)">
                        <g id="lechhausen">
                            <use fill="#D2A1D5" fill-rule="evenodd" xlink:href="#path-21"></use>
                            <circle stroke="#FFFFFF" stroke-width="3" cx="429.91" cy="207.91" r="51.4099998"></circle>
                        </g>
                        <g id="hochzoll">
                            <use fill="#CFB9E3" fill-rule="evenodd" xlink:href="#path-22"></use>
                            <circle stroke="#FFFFFF" stroke-width="3" cx="483.84" cy="385.84" r="39.3400002"></circle>
                        </g>
                        <g id="hammerschmiede">
                            <use fill="#C9DCF5" fill-rule="evenodd" xlink:href="#path-23"></use>
                            <circle stroke="#FFFFFF" stroke-width="3" cx="394.450001" cy="116.450001" r="23.9500008"></circle>
                        </g>
                        <g id="firnhaberau">
                            <use fill="#C9DFF7" fill-rule="evenodd" xlink:href="#path-24"></use>
                            <circle stroke="#FFFFFF" stroke-width="3" cx="314.940001" cy="18.9400005" r="20.4400005"></circle>
                        </g>
                        <g id="herrenbach">
                            <use fill="#CCCAEC" fill-rule="evenodd" xlink:href="#path-25"></use>
                            <circle stroke="#FFFFFF" stroke-width="3" cx="395.211874" cy="343.211874" r="28.711874"></circle>
                        </g>
                        <g id="göggingen">
                            <use fill="#D975BD" fill-rule="evenodd" xlink:href="#path-26"></use>
                            <circle stroke="#FFFFFF" stroke-width="3" cx="207.205002" cy="460.205002" r="39.7050018"></circle>
                        </g>
                        <g id="haunstetten">
                            <use fill="#D881C4" fill-rule="evenodd" xlink:href="#path-27"></use>
                            <circle stroke="#FFFFFF" stroke-width="3" cx="385.720001" cy="619.720001" r="45.2200012"></circle>
                        </g>
                        <g id="inningen">
                            <use fill="#C9DDF6" fill-rule="evenodd" xlink:href="#path-28"></use>
                            <circle stroke="#FFFFFF" stroke-width="3" cx="165.280001" cy="602.280001" r="19.7800007"></circle>
                        </g>
                        <g id="bergheim">
                            <use fill="#C8E2F9" fill-rule="evenodd" xlink:href="#path-29"></use>
                            <circle stroke="#FFFFFF" stroke-width="3" cx="13.4799995" cy="524.48" r="14.9799995"></circle>
                        </g>
                        <g id="univiertel">
                            <use fill="#D49AD1" fill-rule="evenodd" xlink:href="#path-30"></use>
                            <circle stroke="#FFFFFF" stroke-width="3" cx="301.775" cy="480.775" r="29.2749996"></circle>
                        </g>
                        <g id="hochfeld">
                            <use fill="#D590CC" fill-rule="evenodd" xlink:href="#path-31"></use>
                            <circle stroke="#FFFFFF" stroke-width="3" cx="333.014999" cy="404.014999" r="27.5149994"></circle>
                        </g>
                        <g id="oberhausen">
                            <use fill="#D1ABDB" fill-rule="evenodd" xlink:href="#path-32"></use>
                            <circle stroke="#FFFFFF" stroke-width="3" cx="272.790001" cy="171.790001" r="45.2900009"></circle>
                        </g>
                        <g id="baerenkeller">
                            <use fill="#C9DDF6" fill-rule="evenodd" xlink:href="#path-33"></use>
                            <circle stroke="#FFFFFF" stroke-width="3" cx="180.089998" cy="141.030001" r="24.5300007"></circle>
                        </g>
                        <g id="kriegshaber">
                            <use fill="#CCCAEB" fill-rule="evenodd" xlink:href="#path-34"></use>
                            <circle stroke="#FFFFFF" stroke-width="3" cx="175.186259" cy="233.186259" r="37.6862585"></circle>
                        </g>
                        <g id="pfersee">
                            <use fill="#D498D0" fill-rule="evenodd" xlink:href="#path-35"></use>
                            <circle stroke="#FFFFFF" stroke-width="3" cx="221.299999" cy="324.299999" r="44.7999992"></circle>
                        </g>
                        <g id="innenstadt">
                            <use fill="#E71E8D" fill-rule="evenodd" xlink:href="#path-36"></use>
                            <circle stroke="#FFFFFF" stroke-width="3" cx="311" cy="306" r="44.5"></circle>
                        </g>
                        <g id="antonsviertel">
                            <use fill="#CBCEEE" fill-rule="evenodd" xlink:href="#path-37"></use>
                            <circle stroke="#FFFFFF" stroke-width="3" cx="282.045" cy="379.045" r="22.5450001"></circle>
                        </g>
                        <g id="jakobervorstadt">
                            <use fill="#D49AD1" fill-rule="evenodd" xlink:href="#path-38"></use>
                            <circle stroke="#FFFFFF" stroke-width="3" cx="357.33" cy="250.33" r="28.8299999"></circle>
                        </g>
                        <g id="textilviertel">
                            <use fill="#CCC8EA" fill-rule="evenodd" xlink:href="#path-39"></use>
                            <circle stroke="#FFFFFF" stroke-width="3" cx="405.620001" cy="287.620001" r="27.1200008"></circle>
                        </g>
                        <g id="spickel">
                            <use fill="#C8E1F8" fill-rule="evenodd" xlink:href="#path-40"></use>
                            <circle stroke="#FFFFFF" stroke-width="3" cx="399.66" cy="394.66" r="15.1599998"></circle>
                        </g>
                    </g>
                </g>
            </g>
        </g>
    </g>
</svg>