<?xml version="1.0" encoding="UTF-8"?>
<svg width="35px" height="46px" viewBox="0 0 35 46" version="1.1" xmlns="http://www.w3.org/2000/svg" xmlns:xlink="http://www.w3.org/1999/xlink">
    <defs>
        <path d="M0.339,28.1564 C0.339,37.5594 7.961,45.1814 17.363,45.1814 C26.767,45.1814 34.389,37.5594 34.389,28.1564 C34.389,15.1754 17.363,0.7044 17.363,0.7044 C17.363,0.7044 0.339,14.1114 0.339,28.1564" id="path-1"></path>
    </defs>
    <g id="Page-1" stroke="none" stroke-width="1" fill="none" fill-rule="evenodd">
        <g>
            <mask id="mask-2" fill="white">
                <use xlink:href="#path-1"></use>
            </mask>
            <g id="Clip-2"></g>
            <path d="M13.5346,30.9762 C13.5346,29.7712 12.5576,28.7932 11.3516,28.7932 C10.1466,28.7932 9.1696,29.7712 9.1696,30.9762 C9.1696,32.1822 10.1466,33.1592 11.3516,33.1592 C12.5576,33.1592 13.5346,32.1822 13.5346,30.9762 M26.1016,19.0292 C26.1016,17.5022 24.8646,16.2652 23.3376,16.2652 C21.8106,16.2652 20.5736,17.5022 20.5736,19.0292 C20.5736,20.5552 21.8106,21.7932 23.3376,21.7932 C24.8646,21.7932 26.1016,20.5552 26.1016,19.0292 M32.1916,13.0522 C32.1916,11.5252 30.9536,10.2882 29.4276,10.2882 C27.9006,10.2882 26.6626,11.5252 26.6626,13.0522 C26.6626,14.5792 27.9006,15.8162 29.4276,15.8162 C30.9536,15.8162 32.1916,14.5792 32.1916,13.0522 M20.1276,47.5052 C20.1276,45.9792 18.8906,44.7412 17.3636,44.7412 C15.8366,44.7412 14.5996,45.9792 14.5996,47.5052 C14.5996,49.0322 15.8366,50.2692 17.3636,50.2692 C18.8906,50.2692 20.1276,49.0322 20.1276,47.5052 M14.1166,42.7042 C14.1166,41.1772 12.8786,39.9392 11.3516,39.9392 C9.8256,39.9392 8.5876,41.1772 8.5876,42.7042 C8.5876,44.2302 9.8256,45.4672 11.3516,45.4672 C12.8786,45.4672 14.1166,44.2302 14.1166,42.7042 M26.1376,42.7042 C26.1376,41.1772 24.9006,39.9392 23.3726,39.9392 C21.8466,39.9392 20.6096,41.1772 20.6096,42.7042 C20.6096,44.2302 21.8466,45.4672 23.3726,45.4672 C24.9006,45.4672 26.1376,44.2302 26.1376,42.7042 M32.2266,36.6152 C32.2266,35.0872 30.9896,33.8502 29.4626,33.8502 C27.9356,33.8502 26.6986,35.0872 26.6986,36.6152 C26.6986,38.1412 27.9356,39.3782 29.4626,39.3782 C30.9896,39.3782 32.2266,38.1412 32.2266,36.6152 M8.0666,36.6152 C8.0666,35.0872 6.8286,33.8502 5.3026,33.8502 C3.7766,33.8502 2.5386,35.0872 2.5386,36.6152 C2.5386,38.1412 3.7766,39.3782 5.3026,39.3782 C6.8286,39.3782 8.0666,38.1412 8.0666,36.6152 M2.5286,30.7522 C2.5286,29.2252 1.2906,27.9882 -0.2364,27.9882 C-1.7624,27.9882 -3.0004,29.2252 -3.0004,30.7522 C-3.0004,32.2792 -1.7624,33.5162 -0.2364,33.5162 C1.2906,33.5162 2.5286,32.2792 2.5286,30.7522 M37.1526,30.7522 C37.1526,29.2252 35.9146,27.9882 34.3886,27.9882 C32.8626,27.9882 31.6236,29.2252 31.6236,30.7522 C31.6236,32.2792 32.8626,33.5162 34.3886,33.5162 C35.9146,33.5162 37.1526,32.2792 37.1526,30.7522 M37.1526,18.0132 C37.1526,16.4872 35.9146,15.2492 34.3886,15.2492 C32.8626,15.2492 31.6236,16.4872 31.6236,18.0132 C31.6236,19.5402 32.8626,20.7772 34.3886,20.7772 C35.9146,20.7772 37.1526,19.5402 37.1526,18.0132 M3.1026,18.0132 C3.1026,16.4872 1.8656,15.2492 0.3386,15.2492 C-1.1874,15.2492 -2.4254,16.4872 -2.4254,18.0132 C-2.4254,19.5402 -1.1874,20.7772 0.3386,20.7772 C1.8656,20.7772 3.1026,19.5402 3.1026,18.0132 M8.0566,12.7382 C8.0566,11.2112 6.8196,9.9742 5.2926,9.9742 C3.7656,9.9742 2.5286,11.2112 2.5286,12.7382 C2.5286,14.2642 3.7656,15.5022 5.2926,15.5022 C6.8196,15.5022 8.0566,14.2642 8.0566,12.7382 M14.0956,6.6982 C14.0956,5.1722 12.8586,3.9342 11.3316,3.9342 C9.8056,3.9342 8.5676,5.1722 8.5676,6.6982 C8.5676,8.2252 9.8056,9.4622 11.3316,9.4622 C12.8586,9.4622 14.0956,8.2252 14.0956,6.6982 M20.0306,0.7642 C20.0306,-0.7628 18.7926,-1.9998 17.2666,-1.9998 C15.7396,-1.9998 14.5016,-0.7628 14.5016,0.7642 C14.5016,2.2902 15.7396,3.5282 17.2666,3.5282 C18.7926,3.5282 20.0306,2.2902 20.0306,0.7642 M26.1866,6.9202 C26.1866,5.3942 24.9496,4.1562 23.4226,4.1562 C21.8956,4.1562 20.6586,5.3942 20.6586,6.9202 C20.6586,8.4472 21.8956,9.6842 23.4226,9.6842 C24.9496,9.6842 26.1866,8.4472 26.1866,6.9202 M20.6716,13.0172 C20.6716,11.1692 19.1736,9.6712 17.3266,9.6712 C15.4776,9.6712 13.9796,11.1692 13.9796,13.0172 C13.9796,14.8652 15.4776,16.3632 17.3266,16.3632 C19.1736,16.3632 20.6716,14.8652 20.6716,13.0172 M13.4826,18.9912 C13.4826,17.8142 12.5286,16.8602 11.3516,16.8602 C10.1756,16.8602 9.2216,17.8142 9.2216,18.9912 C9.2216,20.1672 10.1756,21.1222 11.3516,21.1222 C12.5286,21.1222 13.4826,20.1672 13.4826,18.9912 M8.9556,24.7382 C8.9556,22.7202 7.3206,21.0852 5.3026,21.0852 C3.2846,21.0852 1.6496,22.7202 1.6496,24.7382 C1.6496,26.7552 3.2846,28.3902 5.3026,28.3902 C7.3206,28.3902 8.9556,26.7552 8.9556,24.7382 M19.8406,24.7382 C19.8406,23.3702 18.7316,22.2602 17.3636,22.2602 C15.9956,22.2602 14.8866,23.3702 14.8866,24.7382 C14.8866,26.1062 15.9956,27.2152 17.3636,27.2152 C18.7316,27.2152 19.8406,26.1062 19.8406,24.7382 M32.4866,24.7382 C32.4866,23.0682 31.1326,21.7142 29.4626,21.7142 C27.7916,21.7142 26.4386,23.0682 26.4386,24.7382 C26.4386,26.4082 27.7916,27.7612 29.4626,27.7612 C31.1326,27.7612 32.4866,26.4082 32.4866,24.7382 M27.0176,30.9762 C27.0176,28.9652 25.3866,27.3342 23.3746,27.3342 C21.3646,27.3342 19.7336,28.9652 19.7336,30.9762 C19.7336,32.9882 21.3646,34.6192 23.3746,34.6192 C25.3866,34.6192 27.0176,32.9882 27.0176,30.9762 M20.1276,37.1392 C20.1276,38.6652 18.8906,39.9032 17.3636,39.9032 C15.8366,39.9032 14.5996,38.6652 14.5996,37.1392 C14.5996,35.6132 15.8366,34.3752 17.3636,34.3752 C18.8906,34.3752 20.1276,35.6132 20.1276,37.1392" id="Fill-1" fill="#4D4D4D" mask="url(#mask-2)"></path>
        </g>
    </g>
</svg>
