<?xml version="1.0" encoding="UTF-8"?>
<svg width="38px" height="50px" viewBox="0 0 38 50" version="1.1" xmlns="http://www.w3.org/2000/svg" xmlns:xlink="http://www.w3.org/1999/xlink">
    <g id="zirbel">
        <mask id="mask-2" fill="white">
          <path d="M0,30.8608944 C0,41.4315264 8.50644659,50 18.999442,50 C29.4935534,50 38,41.4315264 38,30.8608944 C38,16.2668345 18.999442,0 18.999442,0 C18.999442,0 0,15.0718349 0,30.8608944" id="path-1"></path>
        </mask>
        <path d="M14.5303347,34.2229386 C14.5303347,32.8616606 13.4342499,31.7588674 12.0837567,31.7588674 C10.7332636,31.7588674 9.63829946,32.8616606 9.63829946,34.2229386 C9.63829946,35.5830878 10.7332636,36.6870098 12.0837567,36.6870098 C13.4342499,36.6870098 14.5303347,35.5830878 14.5303347,34.2229386 M28.6146892,20.7365793 C28.6146892,19.0129711 27.2272116,17.6167017 25.5169605,17.6167017 C23.8055888,17.6167017 22.4192319,19.0129711 22.4192319,20.7365793 C22.4192319,22.4590587 23.8055888,23.8564569 25.5169605,23.8564569 C27.2272116,23.8564569 28.6146892,22.4590587 28.6146892,20.7365793 M35.440003,13.9900134 C35.440003,12.267534 34.0525254,10.8712646 32.3422744,10.8712646 C30.6309026,10.8712646 29.2445457,12.267534 29.2445457,13.9900134 C29.2445457,15.7136216 30.6309026,17.1110197 32.3422744,17.1110197 C34.0525254,17.1110197 35.440003,15.7136216 35.440003,13.9900134 M21.9193814,52.8789937 C21.9193814,51.1565143 20.5319038,49.7602449 18.8216527,49.7602449 C17.1114017,49.7602449 15.7228033,51.1565143 15.7228033,52.8789937 C15.7228033,54.6026019 17.1114017,56 18.8216527,56 C20.5319038,56 21.9193814,54.6026019 21.9193814,52.8789937 M15.1826061,47.4598431 C15.1826061,45.7362349 13.7951285,44.3399656 12.0837567,44.3399656 C10.3735057,44.3399656 8.98714883,45.7362349 8.98714883,47.4598431 C8.98714883,49.1823226 10.3735057,50.5797207 12.0837567,50.5797207 C13.7951285,50.5797207 15.1826061,49.1823226 15.1826061,47.4598431 M28.6550359,47.4598431 C28.6550359,45.7362349 27.2675583,44.3399656 25.5573072,44.3399656 C23.8470562,44.3399656 22.4584579,45.7362349 22.4584579,47.4598431 C22.4584579,49.1823226 23.8470562,50.5797207 25.5573072,50.5797207 C27.2675583,50.5797207 28.6550359,49.1823226 28.6550359,47.4598431 M35.4792289,40.5868567 C35.4792289,38.8632485 34.0917513,37.4669791 32.3815003,37.4669791 C30.6701285,37.4669791 29.2837717,38.8632485 29.2837717,40.5868567 C29.2837717,42.3093361 30.6701285,43.7067343 32.3815003,43.7067343 C34.0917513,43.7067343 35.4792289,42.3093361 35.4792289,40.5868567 M8.40212194,40.5868567 C8.40212194,38.8632485 7.01576509,37.4669791 5.30551405,37.4669791 C3.59302152,37.4669791 2.20666467,38.8632485 2.20666467,40.5868567 C2.20666467,42.3093361 3.59302152,43.7067343 5.30551405,43.7067343 C7.01576509,43.7067343 8.40212194,42.3093361 8.40212194,40.5868567 M2.19545726,33.9689688 C2.19545726,32.2464894 0.807979677,30.85022 -0.90339211,30.85022 C-2.61364316,30.85022 -4,32.2464894 -4,33.9689688 C-4,35.692577 -2.61364316,37.0899751 -0.90339211,37.0899751 C0.807979677,37.0899751 2.19545726,35.692577 2.19545726,33.9689688 M41,33.9689688 C41,32.2464894 39.6136432,30.85022 37.9022714,30.85022 C36.1908996,30.85022 34.8045427,32.2464894 34.8045427,33.9689688 C34.8045427,35.692577 36.1908996,37.0899751 37.9022714,37.0899751 C39.6136432,37.0899751 41,35.692577 41,33.9689688 M41,19.5897647 C41,17.8672852 39.6136432,16.4698871 37.9022714,16.4698871 C36.1908996,16.4698871 34.8045427,17.8672852 34.8045427,19.5897647 C34.8045427,21.3133729 36.1908996,22.710771 37.9022714,22.710771 C39.6136432,22.710771 41,21.3133729 41,19.5897647 M2.8387627,19.5897647 C2.8387627,17.8672852 1.45240586,16.4698871 -0.257845188,16.4698871 C-1.97033772,16.4698871 -3.35669456,17.8672852 -3.35669456,19.5897647 C-3.35669456,21.3133729 -1.97033772,22.710771 -0.257845188,22.710771 C1.45240586,22.710771 2.8387627,21.3133729 2.8387627,19.5897647 M8.39091452,13.6355845 C8.39091452,11.9119763 7.00343694,10.5157069 5.29318589,10.5157069 C3.58181411,10.5157069 2.19545726,11.9119763 2.19545726,13.6355845 C2.19545726,15.3580639 3.58181411,16.755462 5.29318589,16.755462 C7.00343694,16.755462 8.39091452,15.3580639 8.39091452,13.6355845 M15.1601913,6.81903578 C15.1601913,5.09542759 13.7715929,3.69915822 12.0613419,3.69915822 C10.3510909,3.69915822 8.96361327,5.09542759 8.96361327,6.81903578 C8.96361327,8.54151521 10.3510909,9.93891333 12.0613419,9.93891333 C13.7715929,9.93891333 15.1601913,8.54151521 15.1601913,6.81903578 M21.8106695,0.119877559 C21.8106695,-1.60260187 20.4231919,-3 18.7118201,-3 C17.001569,-3 15.6152122,-1.60260187 15.6152122,0.119877559 C15.6152122,1.84348575 17.001569,3.24088387 18.7118201,3.24088387 C20.4231919,3.24088387 21.8106695,1.84348575 21.8106695,0.119877559 M28.7099522,7.06849053 C28.7099522,5.3460111 27.3224746,3.94974173 25.6122236,3.94974173 C23.9008518,3.94974173 22.5144949,5.3460111 22.5144949,7.06849053 C22.5144949,8.79322747 23.9008518,10.1894968 25.6122236,10.1894968 C27.3224746,10.1894968 28.7099522,8.79322747 28.7099522,7.06849053 M22.5290646,13.950507 C22.5290646,11.8645686 20.8501943,10.1736943 18.7790646,10.1736943 C16.7079348,10.1736943 15.0290646,11.8645686 15.0290646,13.950507 C15.0290646,16.0375741 16.7079348,17.7273197 18.7790646,17.7273197 C20.8501943,17.7273197 22.5290646,16.0375741 22.5290646,13.950507 M14.4720562,20.6936866 C14.4720562,19.3651425 13.4028691,18.2883107 12.0837567,18.2883107 C10.7657651,18.2883107 9.696578,19.3651425 9.696578,20.6936866 C9.696578,22.0222307 10.7657651,23.1001913 12.0837567,23.1001913 C13.4028691,23.1001913 14.4720562,22.0222307 14.4720562,20.6936866 M9.39846085,27.180639 C9.39846085,24.9028123 7.56492827,23.0572986 5.30551405,23.0572986 C3.04385834,23.0572986 1.21032576,24.9028123 1.21032576,27.180639 C1.21032576,29.4573369 3.04385834,31.3039793 5.30551405,31.3039793 C7.56492827,31.3039793 9.39846085,29.4573369 9.39846085,27.180639 M21.5988494,27.180639 C21.5988494,25.6365028 20.3548267,24.3835852 18.8216527,24.3835852 C17.2884788,24.3835852 16.0455768,25.6365028 16.0455768,27.180639 C16.0455768,28.7247752 17.2884788,29.976564 18.8216527,29.976564 C20.3548267,29.976564 21.5988494,28.7247752 21.5988494,27.180639 M35.7706216,27.180639 C35.7706216,25.2956189 34.2531381,23.7672852 32.3815003,23.7672852 C30.5098625,23.7672852 28.992379,25.2956189 28.992379,27.180639 C28.992379,29.0656591 30.5098625,30.5939927 32.3815003,30.5939927 C34.2531381,30.5939927 35.7706216,29.0656591 35.7706216,27.180639 M29.6401674,34.2229386 C29.6401674,31.9518844 27.8133592,30.1108858 25.5595487,30.1108858 C23.3046175,30.1108858 21.4766886,31.9518844 21.4766886,34.2229386 C21.4766886,36.492864 23.3046175,38.3338626 25.5595487,38.3338626 C27.8133592,38.3338626 29.6401674,36.492864 29.6401674,34.2229386 M21.9193814,41.1783241 C21.9193814,42.9019323 20.5319038,44.2993304 18.8216527,44.2993304 C17.1114017,44.2993304 15.7228033,42.9019323 15.7228033,41.1783241 C15.7228033,39.4558447 17.1114017,38.0584465 18.8216527,38.0584465 C20.5319038,38.0584465 21.9193814,39.4558447 21.9193814,41.1783241" id="Fill-1" fill="#4D4D4D" mask="url(#mask-2)"></path>
    </g>
</svg>
