<?xml version="1.0" encoding="UTF-8"?>
<svg width="595px" height="859px" viewBox="0 0 595 859" version="1.1" xmlns="http://www.w3.org/2000/svg" xmlns:xlink="http://www.w3.org/1999/xlink">
    <!-- Generator: Sketch 47.1 (45422) - http://www.bohemiancoding.com/sketch -->
    <title>2</title>
    <desc>Created with Sketch.</desc>
    <defs>
        <rect id="path-1" x="0" y="0" width="595" height="859"></rect>
        <circle id="path-2" cx="328.01" cy="161.01" r="28.0100002"></circle>
        <circle id="path-3" cx="451.135" cy="375.135" r="22.1350002"></circle>
        <circle id="path-4" cx="306.96" cy="51.96" r="11.96"></circle>
        <circle id="path-5" cx="227.085" cy="11.085" r="11.085"></circle>
        <circle id="path-6" cx="373.42" cy="345.42" r="19.4200001"></circle>
        <circle id="path-7" cx="174" cy="434.82" r="34.8199997"></circle>
        <circle id="path-8" cx="367.98" cy="572.98" r="33.9799995"></circle>
        <circle id="path-9" cx="184.96" cy="570.96" r="11.96"></circle>
        <circle id="path-10" cx="8.91499996" cy="567.915" r="8.91499996"></circle>
        <circle id="path-11" cx="260.825001" cy="459.825001" r="28.8250008"></circle>
        <circle id="path-12" cx="288.575001" cy="371.575001" r="28.5750008"></circle>
        <circle id="path-13" cx="200.004999" cy="175.181259" r="26.0049992"></circle>
        <circle id="path-14" cx="129.444998" cy="128.385" r="13.3850002"></circle>
        <circle id="path-15" cx="112.209999" cy="215.209999" r="17.2099991"></circle>
        <circle id="path-16" cx="164.924999" cy="299.924999" r="28.9249992"></circle>
        <circle id="path-17" cx="265.465" cy="287.465" r="46.4650002"></circle>
        <circle id="path-18" cx="224.75" cy="354.75" r="17.75"></circle>
        <circle id="path-19" cx="345.315001" cy="265.315001" r="30.3150005"></circle>
        <circle id="path-20" cx="416.030001" cy="285.030001" r="18.0300007"></circle>
        <circle id="path-21" cx="366.155" cy="412.155" r="9.15499973"></circle>
    </defs>
    <g id="Layouts" stroke="none" stroke-width="1" fill="none" fill-rule="evenodd">
        <g id="light" transform="translate(-544.000000, -100.000000)">
            <g id="2" transform="translate(544.000000, 100.000000)">
                <g id="Rectangle-2">
                    <use fill="#D8D8D8" fill-rule="evenodd" xlink:href="#path-1"></use>
                    <rect stroke="#979797" stroke-width="1" x="0.5" y="0.5" width="594" height="858"></rect>
                </g>
                <g id="map-cracked" transform="translate(22.000000, 22.000000)">
                    <g id="districts">
                        <path d="M182,403.329875 L220.928174,349.362059 L271.947778,334.871645 L294.789226,352.051264 L311.463245,320.656787 L337.549275,331.62963 L375.965057,313.392019 C385.065548,324.083072 390.105488,329.262472 391.084877,328.930219 C392.064266,328.597966 404.195417,321.621227 427.478328,308 L461,352.051264 L443.958285,397.264279 L406.279598,403.329875 L391.084877,427.937553 L406.279598,474.324225 L381.875439,510 L331.403976,479.956078 L303.310935,486.487735 L294.789226,474.324225 C280.90414,470.561718 273.290324,468.251258 271.947778,467.392844 C270.605231,466.53443 267.472434,457.163317 262.549385,439.279504 L223.929327,441.633622 L182,403.329875 Z" id="Path-3" stroke="#979797" stroke-width="3" fill="#EDEDED"></path>
                        <polygon id="bergheim" fill="#BD10E0" points="11.4876705 666.683523 33.7793699 689.755205 52.0766096 660.408365 52.0766096 633.713363 26.2721515 624.211725 31.9218255 608.953547 70.3057576 608.953547 63.3685648 593.991056 81.2000567 560 96.0253927 572.426984 114.044818 565.35892 118.170014 599.371763 139.827487 599.371763 145.327748 582.702852 178.083017 582.702852 167.404277 606.827331 184 613.412571 141.675693 641.258414 141.675693 655.333848 133.173167 666.683523 133.173167 686.236152 141.045357 689.755205 126.32819 708.622697 104.14427 705.077577 92.6935636 736.878222 87.2929111 736.878222 81.2000567 754 56.9512044 749.65964 56.2290422 736.878222 44.4849574 741.377708 34.2746891 732.260851 0 732.260851 0 693.443499"></polygon>
                        <polygon id="inningen" fill="#BD10E0" points="226.74786 616 218.140831 627.033421 218.140831 644.319269 227.515211 647.924977 210.038525 670.856228 188.539931 667.204392 178 696.777247 218.140831 701.121773 222.324266 730 244.597182 692.359847 290.763321 709.077823 306.576317 709.077823 306.576317 684.715839 327 632.910625 302.592757 616 266.747307 616 266.747307 627.033421"></polygon>
                        <polygon id="haunstetten" fill="#BD10E0" points="503.826106 602.004841 516 631.828974 500.398946 645.246965 515.388742 674.765923 490.451444 701.10013 490.451444 733.359456 483.800617 785.983665 448.4898 781.66779 443.975657 798.934005 430.986235 807 414.45509 798.934005 422.124939 785.983665 399.329761 781.66779 409.140565 750.480646 394.603581 732.132941 413.844609 701.10013 352 700.331183 352 676.893227 372.876817 625.133112 381.722507 606.070605 403.332063 609.982812 408.179407 596.836648 430.246823 591.454795 424.418903 564.026689 426.834031 560.27308 445.888265 561.180461 437.367549 552.47581 470.600323 545 506.574436 597.438855"></polygon>
                        <polygon id="univiertel" fill="#BD10E0" points="334.957494 511 302 577.904628 318.155573 589 326.894893 570.111221 348.732873 573.639622 353.519349 561.622023 374 556.30921 369.065954 531.467161"></polygon>
                        <polygon id="göggingen" fill="#BD10E0" points="252.844671 485.92701 252.844671 476.061706 263.362282 476 268.206245 484.996401 292.042621 484.996401 292.042621 504.524536 302 503.44776 269.439916 567.569151 263.362282 562.732062 224.518306 562.732062 224.601662 573 186 562.732062 186 551.673593 231.276747 522.104291 212.64606 514.89506 224.184106 489.035468 228.101846 476.992701"></polygon>
                        <polygon id="antonsviertel" fill="#BD10E0" points="306.288944 477 314.337577 476.167355 326 441.700383 316.568422 433.857019 311.941743 434.721194 295.279081 425 277 448.709546 281.168681 457.501557 306.288944 457.501557"></polygon>
                        <polygon id="pfersee" fill="#BD10E0" points="209 410.965491 218.858528 421.724799 240.652999 430 240.652999 420.482745 252.796877 420.482745 273.012668 394.036164 290.618232 404.252437 293 404.252437 273.012668 377.181152 266.839278 361 236.802132 367.768402 231.604528 378.137174"></polygon>
                        <polygon id="bärenkeller" fill="#BD10E0" points="191.682966 237.868084 177 244.149394 177 251.160833 215.584495 251.160833 220.511807 255 227.555405 235.194217 232 202.228043 228.419915 191 195.965612 196.168639 184.495804 213.571948"></polygon>
                        <polygon id="innenstadt" fill="#BD10E0" points="309 359.301379 316.44092 379.686538 336.405692 406.362967 361.961456 428 373 414.474861 360.57916 398.596136 371.957447 383.89576 368.072169 383.89576 355.904386 372.193968 357.763256 342 341.55976 352.241402 316.44092 344.195642"></polygon>
                        <polygon id="spickel" fill="#BD10E0" points="420.770291 533.057137 432.456065 534 424.590032 526.309098 463.829886 517.703154 468.070312 524.043908 481 513.273244 468.652323 490.014669 419.195232 483 408 496.533175 409.079114 497.373637 421.937016 530.861503"></polygon>
                        <polygon id="herrenbach" fill="#BD10E0" points="425.475389 443.937069 475 451 475 428.397218 467.209254 424.394357 456.95862 421 446.027897 425.524769 425.475389 425.524769 415 430.275387"></polygon>
                        <polygon id="lechhausen" fill="#BD10E0" points="348.012926 229.400307 363.826355 246.426215 377.881013 213.66649 432.844374 209 440.191726 231.325974 443.872579 260.279174 467 276.527334 462.78849 302.500854 440.191726 303 431.662033 297.039861 422.180414 303 367.848178 278.545739 351.553356 256.873213 343 231.989164"></polygon>
                        <polygon id="firnhaberau" fill="#BD10E0" points="284.819719 176.392079 308.924966 202 317.034031 197.195026 308.924966 185.795811 308.924966 164.946349 317.834286 164.946349 317.834286 140.628824 323.654143 145.634974 326.5081 125.368109 317.834286 125.368109 317.834286 109.623254 326.5081 109.623254 326.5081 88.0128875 317.034031 82.9296004 323.654143 69.9314406 333 66.1982442 330.18439 52.2740533 317.034031 12.1318225 297.575373 17.7232833 297.575373 0 277 5.29144063 290.372695 65.4156335 290.372695 107.878563 285.453802 128.764849"></polygon>
                        <polygon id="hochfeld" fill="#BD10E0" points="346 470.377131 379.731605 490 385 482.345499 372.378632 450.667589 357.121292 438"></polygon>
                        <polygon id="kriegshaber" fill="#BD10E0" points="198.208161 348 204.100617 336.282968 235 329.441326 221.938355 298.618164 200.456419 281.212723 163.239391 281.212723 163.239391 286.068283 137 280 137 326.767424 182.12321 307.368903 170.786007 336.282968"></polygon>
                        <polygon id="oberhausen" fill="#BD10E0" points="254.191699 225.194026 250.023184 255.530406 243 275.865108 257.853965 288.583123 269.139399 315 277.100325 299.641694 302.825661 308.231466 326 293.496276 323.843311 290.833093 314.77499 264.892672 289.260752 238.00128 290.007149 198 284.048753 210.504231 271.928996 219.853694"></polygon>
                        <polygon id="jakoberviertel" fill="#BD10E0" points="413.933442 341.550601 419.364834 338 433 356.150682 428.927897 383 422.283252 383 412 372.557917"></polygon>
                        <polygon id="hochzoll" fill="#BD10E0" points="507.075285 491.586869 537.140764 536 539.184704 530.790815 550 492.216999 545.142206 479.461813 529.59004 426.893177 533.575057 411.533008 525.543384 406 517.284388 411.533008 501 424.816353 508.403886 429.141253 508.403886 454.047184 521.513609 479.461813"></polygon>
                        <polygon id="textilviertel" fill="#BD10E0" points="458 400 468.613903 386.738036 470.955582 386.738036 475.492852 359 526 381.575107 510.623867 394.378664 499.928373 390.961134 488.808214 395.449687 468.137563 395.449687"></polygon>
                        <polygon id="hammerschmiede" fill="#BD10E0" points="350.358923 195.10902 363.224352 209 375.957774 178.533521 433 173.657646 397.604202 111.485978 397.604202 98.3529338 384.313936 103.199003 384.313936 89.5391195 389.177558 84.1751147 365.498066 64 358.331914 67.0603898 353.465566 77.4597539 362.006694 82.294984 362.006694 107.226748 352.866278 107.226748 352.866278 118.128564 362.006694 118.128564 358.331914 145.054653 352.866278 141.022649 352.866278 162.496088 344 162.496088 344 180.23791 352.866278 193.093792"></polygon>
                    </g>
                    <g id="circles" opacity="0.8" transform="translate(78.000000, 93.000000)">
                        <g id="lechhausen">
                            <use fill="#D2A1D5" fill-rule="evenodd" xlink:href="#path-2"></use>
                            <circle stroke="#FFFFFF" stroke-width="3" cx="328.01" cy="161.01" r="29.5100002"></circle>
                        </g>
                        <g id="hochzoll">
                            <use fill="#CFB9E3" fill-rule="evenodd" xlink:href="#path-3"></use>
                            <circle stroke="#FFFFFF" stroke-width="3" cx="451.135" cy="375.135" r="23.6350002"></circle>
                        </g>
                        <g id="hammerschmiede">
                            <use fill="#C9DCF5" fill-rule="evenodd" xlink:href="#path-4"></use>
                            <circle stroke="#FFFFFF" stroke-width="3" cx="306.96" cy="51.96" r="13.46"></circle>
                        </g>
                        <g id="firnhaberau">
                            <use fill="#C9DFF7" fill-rule="evenodd" xlink:href="#path-5"></use>
                            <circle stroke="#FFFFFF" stroke-width="3" cx="227.085" cy="11.085" r="12.585"></circle>
                        </g>
                        <g id="herrenbach">
                            <use fill="#CCCAEC" fill-rule="evenodd" xlink:href="#path-6"></use>
                            <circle stroke="#FFFFFF" stroke-width="3" cx="373.42" cy="345.42" r="20.9200001"></circle>
                        </g>
                        <g id="göggingen">
                            <use fill="#D975BD" fill-rule="evenodd" xlink:href="#path-7"></use>
                            <circle stroke="#FFFFFF" stroke-width="3" cx="174" cy="434.82" r="36.3199997"></circle>
                        </g>
                        <g id="haunstetten">
                            <use fill="#D881C4" fill-rule="evenodd" xlink:href="#path-8"></use>
                            <circle stroke="#FFFFFF" stroke-width="3" cx="367.98" cy="572.98" r="35.4799995"></circle>
                        </g>
                        <g id="inningen">
                            <use fill="#C9DDF6" fill-rule="evenodd" xlink:href="#path-9"></use>
                            <circle stroke="#FFFFFF" stroke-width="3" cx="184.96" cy="570.96" r="13.46"></circle>
                        </g>
                        <g id="bergheim">
                            <use fill="#C8E2F9" fill-rule="evenodd" xlink:href="#path-10"></use>
                            <circle stroke="#FFFFFF" stroke-width="3" cx="8.91499996" cy="567.915" r="10.415"></circle>
                        </g>
                        <g id="univiertel">
                            <use fill="#D49AD1" fill-rule="evenodd" xlink:href="#path-11"></use>
                            <circle stroke="#FFFFFF" stroke-width="3" cx="260.825001" cy="459.825001" r="30.3250008"></circle>
                        </g>
                        <g id="hochfeld">
                            <use fill="#D590CC" fill-rule="evenodd" xlink:href="#path-12"></use>
                            <circle stroke="#FFFFFF" stroke-width="3" cx="288.575001" cy="371.575001" r="30.0750008"></circle>
                        </g>
                        <g id="oberhausen">
                            <use fill="#D1ABDB" fill-rule="evenodd" xlink:href="#path-13"></use>
                            <circle stroke="#FFFFFF" stroke-width="3" cx="200.004999" cy="175.181259" r="27.5049992"></circle>
                        </g>
                        <g id="baerenkeller">
                            <use fill="#C9DDF6" fill-rule="evenodd" xlink:href="#path-14"></use>
                            <circle stroke="#FFFFFF" stroke-width="3" cx="129.444998" cy="128.385" r="14.8850002"></circle>
                        </g>
                        <g id="kriegshaber">
                            <use fill="#CCCAEB" fill-rule="evenodd" xlink:href="#path-15"></use>
                            <circle stroke="#FFFFFF" stroke-width="3" cx="112.209999" cy="215.209999" r="18.7099991"></circle>
                        </g>
                        <g id="pfersee">
                            <use fill="#D498D0" fill-rule="evenodd" xlink:href="#path-16"></use>
                            <circle stroke="#FFFFFF" stroke-width="3" cx="164.924999" cy="299.924999" r="30.4249992"></circle>
                        </g>
                        <g id="innenstadt">
                            <use fill="#E71E8D" fill-rule="evenodd" xlink:href="#path-17"></use>
                            <circle stroke="#FFFFFF" stroke-width="3" cx="265.465" cy="287.465" r="47.9650002"></circle>
                        </g>
                        <g id="antonsviertel">
                            <use fill="#CBCEEE" fill-rule="evenodd" xlink:href="#path-18"></use>
                            <circle stroke="#FFFFFF" stroke-width="3" cx="224.75" cy="354.75" r="19.25"></circle>
                        </g>
                        <g id="jakobervorstadt">
                            <use fill="#D49AD1" fill-rule="evenodd" xlink:href="#path-19"></use>
                            <circle stroke="#FFFFFF" stroke-width="3" cx="345.315001" cy="265.315001" r="31.8150005"></circle>
                        </g>
                        <g id="textilviertel">
                            <use fill="#CCC8EA" fill-rule="evenodd" xlink:href="#path-20"></use>
                            <circle stroke="#FFFFFF" stroke-width="3" cx="416.030001" cy="285.030001" r="19.5300007"></circle>
                        </g>
                        <g id="spickel">
                            <use fill="#C8E1F8" fill-rule="evenodd" xlink:href="#path-21"></use>
                            <circle stroke="#FFFFFF" stroke-width="3" cx="366.155" cy="412.155" r="10.6549997"></circle>
                        </g>
                    </g>
                </g>
            </g>
        </g>
    </g>
</svg>